# xmcd
#
# Track frame offsets: 
#        150
#        15750
#        30000
#        50775
#        66600
#        80400
#        95175
#        116475
#        135150
#        153000
#        164925
#        176250
#        190350
#        202650
#        215250
#        227700
#        238950
#        252375
#        263475
#        278250
#        293625
#        313200
#
# Disc length: 4322 seconds
#
# Revision: 0
# Processed by: cddbd v1.5.2PL0 Copyright (c) Steve Scherf et al.
# Submitted via: ExactAudioCopyFreeDBPlugin 1.0
#
DISCID=2810e016
DTITLE=Various Artist - American Country Special Hits Vol. 2
DYEAR=1999
DGENRE=Country
TTITLE0=Crystal Gayle - Ready For The Times To Get Better
TTITLE1=Paul Simon and Art Garfunkel - El Condor Pasa
TTITLE2=Garth Brooks - Ain't Goin' Down ('Til The Sun Comes Up)
TTITLE3=Kenny Rogers - The Gambler
TTITLE4=The Carpenters - Sweet Sweet Smile
TTITLE5=The Bellamy Brothers - Let Your Love Flow
TTITLE6=Bonnie Raitt - Longing In Their Hearts
TTITLE7=Shania Twain - Any Man Of Mine
TTITLE8=Freddie Aguilar - Anak (Child)
TTITLE9=Skeeter Davis - The End Of The World
TTITLE10=The Brothers Four - Blowin' In The Wind
TTITLE11=The Kingston Trio - Where Have All the Flowers Gone
TTITLE12=José Feliciano - Rain
TTITLE13=Johnny Horton - All For The Love Of A Girl
TTITLE14=Peter, Paul and Mary - Gone The Rainbow
TTITLE15=Frankie Laine - Rose, Rose I Love You
TTITLE16=Joan Baez - The House Of The Rising Sun
TTITLE17=The Everly Brothers - Devoted To You
TTITLE18=The Wynners - 4:55 (Part Of The Game)
TTITLE19=Peter, Paul and Mary - Puff, The Magic Dragon
TTITLE20=Vaya Con Dios - Puerto Rico
TTITLE21=The Cascades - Rhythm Of The Rain
EXTD=
EXTT0=
EXTT1=
EXTT2=
EXTT3=
EXTT4=
EXTT5=
EXTT6=
EXTT7=
EXTT8=
EXTT9=
EXTT10=
EXTT11=
EXTT12=
EXTT13=
EXTT14=
EXTT15=
EXTT16=
EXTT17=
EXTT18=
EXTT19=
EXTT20=
EXTT21=
PLAYORDER=
